<?xml version="1.0" encoding="utf-8"?>
<!-- Generator: Adobe Illustrator 21.0.2, SVG Export Plug-In . SVG Version: 6.00 Build 0)  -->
<svg version="1.1" id="Layer_1" xmlns="http://www.w3.org/2000/svg" xmlns:xlink="http://www.w3.org/1999/xlink" x="0px" y="0px"
	 viewBox="0 0 500 500" style="enable-background:new 0 0 500 500;" xml:space="preserve">
<style type="text/css">
	.st0{fill:#231F20;}
	.st1{fill:#EC1C24;}
</style>
<path class="st0" d="M406,430.9c-14.2,1.9-14.2,1.9-21.1-10.5c-3.1,6.8-9,9.1-15.4,10.8c-2.8,0.7-4.4,0-5.9-2.6
	c-5.3-9.7-3.8-20.5,4.4-29.8c1.4-1.6,3.8-2.9,3.5-6.3c-11.4,4.8-17.2,14-22.3,24.1c-1-16.8-3.9-32-21.8-38.9
	c11,13.4,10.9,29.2,10.5,46.3c-11-20.2-16-25.5-24-25.8c0.3,2.6,2.7,3.5,4.2,4.9c5.6,5.2,8.2,11.8,9.1,19.2c0.1,1.1,0.1,2.4-1,3
	c-1.1,0.6-1.8-0.3-2.2-1.1c-2.8-6.8-8.5-6.3-14.1-5.8c-4.4,0.4-8.8,1.6-13.3,0.3c-4.4-1.3-6.4-3.7-5-8.7c3.1-11.3,1.4-22.1-4.8-32.2
	c-3.8-6.2-8.6-11.7-13.5-17.1c-6.6-7.3-13.2-14.7-16.6-24.3c-1.2-3.5-1.9-6.3,1.8-8.6c1.7-1.1,2.7-2.9,1.1-4.7
	c-3.4-4-1.1-6.3,2.3-8.4c3.4-2.1,6.9-3.7,10.7-4.7c2.3-0.6,4.1,0,4.8,2.4c4.6,16.1,16.9,19.9,31.3,18.4c19.8-2,35.1-16.3,35.2-34.7
	c0.1-13.4,2.4-26.1,6-38.9c0.6-2.1,1-4.1,1.4-6.3c1.1-7.1,0.8-14.5-1.5-21.4c-2.1-6.6-5.9-12.5-10.9-17.3c-2.6-2.5-5.5-4.7-8.6-6.6
	c-1.7-1-3.3-1.9-5.2-2.6c-2.2-0.8-4.4-1.8-6.5-2.9c-1.3-0.7-2.9-1.4-4-2.3c-1-0.8-1.8-2-2.6-3c-0.6-0.9-1.2-1.8-1.6-2.7
	c-0.4-0.8-0.7-1.3-1.7-1c-0.4,0.1-0.5,0.2-0.6,0.4c-0.1,0.2-0.1,0.4-0.1,0.8c-0.1,1.2-0.5,2.4-1.2,3.4c-1.9,2.5-4.9,2.7-7.8,2.5
	c-1.5-0.1-3,0.1-4.5,0.3c-6.8,0.8-12.4-1.2-17-6.4c-3.2-3.6-6.5-7.3-10.1-10.4c-13.4-11.3-28.5-17.5-46.3-13.9
	c-3.8,0.8-6.1,1-9.2-2.1c-6.9-7-18.7-7.4-24.9-1.6c-5.6,5.2-5.5,15.2,0.7,22.9c1.5,1.9,1.3,3.2,0.6,5c-8.4,19.8-2.8,37.3,9.3,53.3
	c13.5,17.8,21,38,26,59.4c0.7,3.2,1.7,6.8-4.1,6.7c-2.6,0-5,2.6-3.2,5.6c1.8,3.1,0.1,4.7-1.4,6.9c-15.1,20.5-19.8,43-12.4,67.6
	c1.2,4-0.4,4.6-3.7,4.3c-7-0.7-14.1-1.1-21.2-0.6c-13.2,0.9-20.3,7.5-22.8,20.4c-0.3,1.7-0.1,3.6-2.2,5.4c-6.1-19.8-3.7-39.6-4-59.2
	c-8,16.3-8.1,34-9.6,51.5c-4.8-10.4-8.8-21-18.7-28.9c2,7.6,6.4,13.5,6.8,20.7c0.4,6.8,1.3,13.6-1.2,20.4c-2.6-9.9-7.3-17.4-18-21.1
	c2.3,4.7,4.4,8.5,6.1,12.4c2.3,5.4,3,11.5-0.4,16.1c-3.5,4.6-9.5,2.9-14.7,2.2c-0.9-0.1-1.8-0.6-2.7-0.7c-5.2-0.7-10.2-2.8-15.6-2.3
	c13,7,26.8,11.4,41.6,12.3c9.2,0.6,18.2-0.8,26.9-4c1.9-0.7,4.7-1,2.5-4.5c-1.5-2.4,0.2-3.4,2.5-3.2c6.1,0.5,12.3,0.2,17.9,3.6
	c8.3,5.1,17.6,6.9,27.2,7.1c14.9,0.3,29.3-2.3,43.5-6.3c2.3-0.7,4.7-1.6,7.1-0.6c6.4,2.6,13,3.2,19.7,2.9c1.6-0.1,4-0.1,3.8,2.2
	c-0.6,5.6,3.1,6.3,7.1,7.3c2.9,0.7,5.8,1.6,8.4,3c10.2,5.3,19.9,2.2,29.5-1.6c2.1-0.8,4.1-2.2,4.9-4.4c1.4-3.8,4.3-4.2,7.6-4.2
	c8.2,0.1,16.4-0.1,24.5,0.8c9,1.1,18.1,2.5,27.3,1.6c13-1.3,25.1-5.6,37.6-10.6C415.6,430.5,412.7,430,406,430.9z M192.7,167.2
	c2.6-1,5.2-1.8,7.7-2.6c1.8,0.5,3.6,0.7,4.9,1.5c1.8,1.1,5.4,1.6,3.4,4.9c-1.5,2.6-4.3,4.8-7.3,2.9c-2.6-1.7-5.1-2.7-8.1-2.8
	c-1.1,0-2.3-0.5-2.6-1.7C190.5,168.1,191.8,167.6,192.7,167.2z M200.4,236.1c-3.5-4.9-6-10.2-7.7-16c-2.5-8.9-1.7-17.3,3.1-25.2
	c9.2-15,27.7-26.2,47.8-18.5c9.4,3.6,17.6,8.8,24.1,16.6c5.9,7,12.6,12.9,22.5,12.8c3.7,0,7.4-0.4,11.1-0.7c2.9-0.3,4.9,0.2,5.7,3.6
	c0.7,3,2.4,4.5,4.4,0.6c1.5-2.9,3.8-2.3,6.2-1.4c20.9,7.5,31.4,26.1,25.4,47.4c-3.7,13.4-6.2,26.6-6.4,40.6
	c-0.3,21.4-23.6,32.1-41.5,27.2c-6-1.6-9.9-6.5-11.3-12.8c-1.9-8.8-0.4-17,4.7-24.5c5.2-7.8,20.2-18.5,22.1-22.2
	c-10.8,1.2-27.2,15-31.2,28.1c-2.6,8.5-6.3,11.9-14.3,13.6c-6.5,1.4-11.7,5.7-14.5,12.1c-0.1,0.3-0.2,0.8-0.5,1
	c-5,4.4-9.7,0-14.5-0.7c-3-0.5-6.2-1.4-5.5-6.1c1.1-8.5-1.1-16.5-3.8-24.6C220.3,268.7,211.6,251.8,200.4,236.1z M166.9,421.4
	c-0.2,1.1-0.6,2.3-2,2.2c-1.2,0-1.9-1-2.6-1.9c-1-1.5-1-3.2-0.8-4.8c1-9.2,10-15.7,21.5-13.9C173.5,407,168.7,413,166.9,421.4z
	 M249.9,387.1c-0.4,11.5-1.2,23-2.8,34.5c-0.7,5.2-3.1,7.8-8.2,9c-9.8,2.3-19.6,4.1-29.6,5.5c-4.9,0.7-5.9-1.2-5.6-5.4
	c0.1-2.5,1.7-4.9,0.1-8.1c-3,2.5-4.8,5.3-4.7,9c0,4.5-2.3,5-6.1,4.8c-4-0.3-6-2.1-5.7-5.9c0.2-2.7,1.2-5.4,1.8-8.1
	c0.4-1.9,1.9-3.6,1.3-6.3c-5.5,2-5.9,7.1-7.7,11.3c-0.9,2.1,1.4,6.4-3.7,5.8c-3.9-0.5-7.5-4.8-7-8.7c0.9-6.7,4.4-11.7,10.2-15.2
	c9.6-5.7,20.1-5.3,30.4-3.6c5.4,0.9,7.1-0.8,7.7-5.5c1.1-7.6,3.6-14.8,5.7-22.1c0.5-1.8,1.7-3.9-1.1-6.4c-2.6,7.8-5.1,15.3-7.7,22.7
	c-0.6,1.8-0.2,4.9-2.7,4.9c-2.2,0-3.2-2.9-4-4.9c-7.7-21.6-5.7-42,7-61.2c1.1-1.7,2.5-3.3,3.4-5.1c2.1-3.9,4.8-5.1,9.1-3.3
	c4.4,1.8,9.1,3.3,14.1,3.2c2.8-0.1,4.1,1.5,4.4,4c1.9,16.6,12.8,27.6,23.6,38.7c4.3,4.4,8.5,8.7,11.1,15.7c-4.1-2.6-6.9-4.6-10-6.3
	c-4.8-2.6-9.8-2.5-14.3,0.6c-2.8,1.9-5.1,4-6.8-1.7C250,382.1,250,384.6,249.9,387.1z M277.6,429.7c0.2,0.9-0.8,1.8-1.8,1.8
	c-4.6,0.2-9.6,1.3-13.8,0.1c-5-1.4,0.6-4.2,0.2-7c-2.6,0.2-3.4,1.9-4,4c-0.5,1.5-1.7,2.5-3.5,2.1c-1.6-0.4-1.8-1.8-1.8-3.1
	c-0.2-4.4-0.4-8.6,5.3-10.1c2.6-0.7,4.9-2.5,7.4-3.8c3.6-1.8,7-2.2,9.5,2.1c1.2-5.4-1.3-8.5-6.1-7.4c-3.6,0.8-7,2.3-10.5,3.8
	c-3.2,1.4-5,1-4.8-3c0.2-4.6-0.2-9.3,0.4-13.9c1.4-11.6,12.4-16.7,22.2-10.4c10.7,6.8,12.7,14.1,7.5,27.4
	C281.6,418,276.2,422.6,277.6,429.7z M297.9,448.2c-4-1.5-7.9-3.2-11.9-4.8c-1.4-0.6-2.9-1-3.1-2.8c-0.2-1.9,0.9-3.2,2.3-4.1
	c0.8-0.5,1.6-0.9,2.5-1.3c7.5-3.9,7.7-4.7,3.4-12.3c-0.5-0.9-1.6-2-0.6-3c1.5-1.4,2,0.5,3,1.1c4.7,3,9.7,2.6,14.9,1.7
	c7.6-1.4,12.8,2.8,12.6,10C320.7,444.3,308.8,452.2,297.9,448.2z M113.8,78c-2-18.5,10-31.9,29.8-31.8c7.1-0.2,14.8,1.2,20.1,8.5
	c1.4,1.9,2.7,2.2,4.4,0.1c9.9-12,26.9-11.4,37.5-4.8c10.5,6.5,14.9,21.7,10.7,35.4c-2.3,7.5-6.6,13.7-12.3,19
	c-11,10.2-22.8,19.7-31.9,31.8c-3.8,5-7.8,5.2-11.6,0.7c-9.7-11.7-22-20.6-32.7-31.1C119.9,98.1,115,89.1,113.8,78z M318.7,271.6
	c4,0.4,9.4-1.1,9.9-4.3c4.6-0.5,1.1,8.6,1.1,12c0,5,0.1,10,1.7,14.9c1.2,3.8,0.7,7.5-1.5,10.7c-9.8,14.2-20.5,17.2-34.9,11
	c-4.7-2-8-8.3-6.8-13.4c2.5-11.1,8.8-20.4,15.8-29C307.6,268.8,313.8,271.1,318.7,271.6z M267.4,229c1.9-5.1,4.7-9.6,9.7-12.3
	c1.9-1,3.2-0.5,3.8,1.6c1.1,3.9-6.6,14.1-11,14.3C268,232.4,266.6,231.2,267.4,229z"/>
<path class="st1" d="M188.5,105.3c-14.9,14.3-22.7,26.2-22.7,26.2c-4.6-5.5-9.5-10.9-14.4-16.1c-10.4-11-26.4-19.2-28.8-35.3
	c-1.7-11,2.6-22.9,14.8-24.5c0.8-0.1,1.6-0.2,2.4-0.2c24-0.7,27,17.9,27,17.9s16.2-30.5,34.8-15.1
	C220.2,73.6,203.4,90.9,188.5,105.3z"/>
</svg>
